<svg xmlns="http://www.w3.org/2000/svg" xmlns:xlink="http://www.w3.org/1999/xlink" viewBox="0 0 315 432.1">
  <defs>
    <style>
      .cls-1 {
        fill: none;
      }

      .cls-2 {
        fill: #f5cb9c;
      }

      .cls-3 {
        fill: #231f20;
      }

      .cls-4 {
        fill: #f2ad26;
      }

      .cls-5 {
        fill: #a86918;
      }

      .cls-6 {
        fill: #fff;
      }

      .cls-7 {
        fill: #00de55;
      }

      .cls-8 {
        clip-path: url(#clip-path);
      }

      .cls-9 {
        fill: #c6c8c9;
      }
    </style>
    <clipPath id="clip-path">
      <path class="cls-1" d="M302.8,353.8a1177.4,1177.4,0,0,0-290.6,0v47a653.8,653.8,0,0,1,290.6,0Z"/>
    </clipPath>
  </defs>
  <g id="Layer_2" data-name="Layer 2">
    <g id="Layer_5" data-name="Layer 5">
      <g>
        <g>
          <path class="cls-2" d="M308.7,295.8H287.9v10.6l-11.1-10.6H259.3c.1,4.1.1,8.1.1,12.2l-9.9-.2h-6.8l-31.7-.4h-6.8l-31.7-.2H122.4l-20.7.2h-.1l-8.8,7.7-8.9-7.6-20.7.4-7.6,7V307c-4.1-3.6-8.2-7.4-12.3-11.2H6.3v20.7H8.1V322h0c0,26.9-.1,53.8-.1,80.7a659.2,659.2,0,0,1,77.4-13.4l1.3-1.2,6-7.1,6.1,5.9,1.2.9a647.9,647.9,0,0,1,208.5,15.3v-6.4h.2Z"/>
          <path class="cls-2" d="M314.8,411.1l-7.7-1.8a637.8,637.8,0,0,0-206.5-15.2l-2.4.2-3.8-2.9-1.2-1.2-1.7,1.9-.4.5-2.8,2.7-2.2.3A622.8,622.8,0,0,0,9.5,408.9l-7.8,1.8V323H0V289.5H45.7l1.9,1.7c3.9,3.7,8.1,7.4,12.2,11.1h.1l.8-.8h2.4l20.7-.3h2.4l1.8,1.5,4.7,4,2.6-2.2v-3.4h6.4l20.7-.2h50.1l31.8.2H211l31.8.4h10.3V289.5h26.3l1.8,1.7.5.4v-2.1H315V404.6h-.2ZM157.6,378.9a652.9,652.9,0,0,1,144.6,16.3v-6.4h.2V302.1h-8.2v19.3l-10.8-10.5c-2.9-2.9-6-5.8-9.2-8.8h-8.6v12.3h-6.4l-10-.2h-6.7l-31.7-.4h-6.8l-31.6-.2H120.2l-16.1.2L97,319.8l-4.1,3.6-4.2-3.5-7.1-6-15.9.2-5.8,5.4-10.7,10V309.9l-8.5-7.8H12.6v7.8h1.8v85a653.9,653.9,0,0,1,68.1-11.5l5.4-6.4,4.4-5.1,4.8,4.7,5,4.8C120.6,379.7,139.2,378.9,157.6,378.9Z"/>
        </g>
        <g>
          <path class="cls-2" d="M157.5,167.7c-96.4,0-146.8,31.2-146.8,31.2,0,171.8,146.8,233.2,146.8,233.2s146.8-61.4,146.8-233.2C304.3,198.9,253.9,167.7,157.5,167.7Z"/>
          <path class="cls-3" d="M157.5,173.9c-91.8,0-139.8,29.6-139.8,29.6,0,162.8,139.8,220.9,139.8,220.9s139.8-58.1,139.8-220.9C297.3,203.5,249.3,173.9,157.5,173.9Z"/>
          <path class="cls-4" d="M157.5,180.7c-85.3,0-130,27.4-130,27.4,0,151,130,204.9,130,204.9s130-53.9,130-204.9C287.5,208.1,242.8,180.7,157.5,180.7Z"/>
          <path class="cls-3" d="M157.5,190.3c-81.1,0-123.6,20.5-123.6,20.5,0,130.6,123.6,177.3,123.6,177.3s123.6-46.7,123.6-177.3C281.1,210.8,238.6,190.3,157.5,190.3Z"/>
          <path class="cls-4" d="M157.5,180.1c-77.2,0-118.6,34.2-118.6,34.2,6.3,118,41,175.5,118.6,175.5s118.6-47.5,118.6-174.4C276.1,215.4,234.7,180.1,157.5,180.1Z"/>
          <path class="cls-5" d="M157.5,197C86.3,197,48,217.2,48,217.2c2.3,138.3,109.5,159,109.5,159s105.6-13.5,109.5-159C267,217.2,228.7,197,157.5,197Z"/>
          <g>
            <path class="cls-5" d="M129.5,374.1s3.6,9.6,11.5,14.8a76.7,76.7,0,0,0,15.7,8L180,382.4Z"/>
            <path class="cls-3" d="M176.6,382.4c-11.5,10-19.9,14.5-19.9,14.5s-8.6-4.6-20.3-15l-4.9-.2-8.4-.4c19.6,14,34.4,20.1,34.4,20.1s14-5.8,32.8-18.9Z"/>
          </g>
          <path class="cls-5" d="M90.6,236.2c-.2,8-.3,16.1-.4,24.1L89.3,279l7.1,7.8,14.3-7.1-2.4-46.8Z"/>
          <path class="cls-5" d="M123.4,187.8s2.7,6.8,7.7,9.2a23.9,23.9,0,0,0,10.4,2.1s-7.8-2.4-10.8-6.8S123.4,187.8,123.4,187.8Z"/>
          <path class="cls-5" d="M108.1,186.6s-1.9,8.2-7.1,10.4a26.4,26.4,0,0,1-10,1.9s7.2-2.8,9.8-7.9C102.6,187.5,108.1,186.6,108.1,186.6Z"/>
          <path class="cls-5" d="M102.8,181.3s-15.6-8.6-21.1-7.7-.9,8-.9,8,6.8-6.5,14-2.2A16.3,16.3,0,0,0,102.8,181.3Z"/>
          <path class="cls-5" d="M162.7,188s9.2-4.9-7.3-11.3c-5.1-1.9-11,.8-11,.8s9.7,1,12.5,3.3S162.7,188,162.7,188Z"/>
          <path class="cls-5" d="M103.5,204s-10.1,11.1.3,27.8l-4.2,3.3S81.9,218.3,103.5,204Z"/>
          <path class="cls-6" d="M108.8,269.6l.5,4.6S109.2,272.4,108.8,269.6Z"/>
          <path class="cls-2" d="M118.5,181.3s-4.9-7.7-17.2-.4c-4.2,2.5-6.1,11.4-1.3,11.5C100,192.4,103.2,177.3,118.5,181.3Z"/>
          <path class="cls-2" d="M123,205.5s34.5,6.6,17,44.9c-9.6,20.9-49.1-3.5-42.2-9.2C118.7,224,130.1,218.7,123,205.5Z"/>
          <path class="cls-3" d="M169.5,162.8s16.2,7.5,16,18.6C185.5,181.4,190.6,163.3,169.5,162.8Z"/>
          <polygon class="cls-3" points="98.2 247.9 98.2 247.9 98.2 247.9 98.2 247.9"/>
          <path class="cls-3" d="M76,173.9s1.4-6,8.9-5.2,10.9,3.8,21.8,10.9c0,0-.9,6.2-3.9,9a12.5,12.5,0,0,0,2.5,3.5s2.2-1.2-2.2.3c-6,2-18.5,4.8-21.7-.7a13.3,13.3,0,0,1,.3-6.3c1.2-4.5,13.1-3.5,16.3-3.3a75.4,75.4,0,0,0-10.7-7.2c-3.5-1.8-10.7,2.5-10.6,1.1C76.6,178.8,76.4,175.2,76,173.9Z"/>
          <path class="cls-3" d="M120.7,178.8s2.8-.4,7.5-3.8c8-5.7,15.4-9.9,27.7-8.9,9.1.9,12.4,7,12.4,7s-14-4.6-22.4-.3A78.2,78.2,0,0,0,130,183.5s10.9-3.5,16.1-3.4c7,.2,12.6,4.4,17.1,7.6,0,0-13.6,9.1-28.7,4.4-11.4-3.6-14.1-3.5-14.1-3.5a39,39,0,0,1,4.1-2.6A18.1,18.1,0,0,1,120.7,178.8Z"/>
          <path class="cls-3" d="M124.1,206.9s3.7,2.1,4.5,3.8c4,8.7-4.2,9.4-4.2,9.4s-3.2-3.1-5.1-3.4c0,0-3,5.3-7.3,5.6A15.7,15.7,0,0,1,98.9,217c.8-3.6,2.4-8.9,3.5-13.5-.7,3-7.2,13.9-7,14.5,3.4,7.5,10.1,9.5,15.6,9,0,0,6-1.1,7.8-4.4,5.1,3,11.3.3,11.3.3,3.6-2.6,3.2-9.5-1.5-12.8C127.3,209.2,128.6,208.4,124.1,206.9Z"/>
          <path class="cls-3" d="M122.9,207.5c.5-1,17.9-1,15.6,17.2C138.5,224.7,131.6,210,122.9,207.5Z"/>
          <path class="cls-3" d="M102.5,201.2a55,55,0,0,0,4.2-12.8s-6-.9-7-2.1S101,194.4,102.5,201.2Z"/>
          <path class="cls-6" d="M132.3,188s10.2-5.9,16.1-4.8,6,3.7,6,3.7S147.5,192.6,132.3,188Z"/>
          <path class="cls-6" d="M85.7,187.8a23.4,23.4,0,0,1,6.7-2.1c1.9-.1,4.2.9,7,3.8a13.7,13.7,0,0,1-7.1,1.6A10.8,10.8,0,0,1,85.7,187.8Z"/>
          <g>
            <path class="cls-2" d="M104,243.4s-4.3-8.5.9-11.2c1.5-.7,3.8.5,7.4.9s4.4-1.8,7.7-1.4c7.8.8,10.4,3.4,13.1,10.5,3.4,9.3,4.2,10.4,4.2,10.4a64,64,0,0,1-3.3,10.7c-2.2,5.4-2.5,12-10.1,12.8-5,.5-10.1-.5-14.5-5.2-2.2-2.4-1.1-6.1-1.3-12.9A33.9,33.9,0,0,0,104,243.4Z"/>
            <path class="cls-3" d="M105.6,243.4s-3.1-4.7-.9-7.5,20.3-3.4,24.4,4.4,5.8,7.9,4,10.1.3,14.4-6.7,20.3-14.7-3.8-14.7-3.8a17,17,0,0,1-1.9-10C110.8,247.9,105.6,243.4,105.6,243.4Z"/>
            <path class="cls-6" d="M108.8,242.4s-1.3-3.3,1.2-4.4c6.8-3,12.4-.6,16,6.4l5.1,9.8s-1.1,12.2-9,12.6-10.2-3.1-10.8-11.6S109.3,243.4,108.8,242.4Z"/>
            <path class="cls-3" d="M106.2,241.2s2.1,4.1,8.8,4.2,9.6-2.1,10.7-2.9,6.2,11.6,6.2,11.6-.2,6.4-3.9,9.7c-1.2,1.1-5.5,2.4-8.1,1.5s-4.1-2.4-4-4.5.3-7.8-1.6-8.7a4.8,4.8,0,0,0-3.9-.1l-4.4-9C106.1,242.4,106.1,241.8,106.2,241.2Z"/>
            <path class="cls-3" d="M123.6,239.1s-1.6-.1-2.5,2.1c0,0-.3-2.2-1.4-3s-4.8-1.8-6.2,1.5a4,4,0,0,0-4.2-1.1c-1.5.4-1.5,2.8-1.5,2.8s-1-1.1,0-3.5c0,0,7.5-1.6,7.6-1.4s6.8.7,6.8.7Z"/>
            <path class="cls-3" d="M111.3,258.6v-.3a2.1,2.1,0,0,1,1.1-2.2c2.2-.9,3.4.4,3.5.8v-2.7a12.8,12.8,0,0,1-3.7.5c-1.8-.1-2.2-.2-1.9,1.3A5.6,5.6,0,0,0,111.3,258.6Z"/>
            <path class="cls-3" d="M111.9,263.3a6.2,6.2,0,0,1,1.7-1.7,2.4,2.4,0,0,0-2-.1C110.3,262.1,111.9,263.3,111.9,263.3Z"/>
            <path class="cls-3" d="M124.1,244.7c-.8,0-1.4-.2-2.7-2.1,0,0-.4,2.9,0,3.4S124.1,244.7,124.1,244.7Z"/>
          </g>
          <path class="cls-3" d="M126.7,240s6,6.9,8.2,12.4c0,0-2.4-.7-3-2Z"/>
          <path class="cls-5" d="M221.9,173.7l-6.8-.3-1.2,26.8h-5.2s1.9-31.5,3.1-34.3Z"/>
          <path class="cls-3" d="M162.2,246.1s6.2-6.9,3.8-20.6a16.7,16.7,0,0,1,5.6,15C170.1,249.9,162.2,246.1,162.2,246.1Z"/>
          <path class="cls-5" d="M148,270.8s8.2-4.3,10.2-11.3c0,0,2.4,3,1.9,5.5,0,0,8.7-8.9,7.7-18.2.1,0,3.7,16-8.7,24.6a17.5,17.5,0,0,0-.6-6.1S157.5,270.1,148,270.8Z"/>
          <g>
            <path class="cls-3" d="M150.5,186.1a5.6,5.6,0,0,1-5.5,5.5c-3,0-5.4-3.6-5.4-6.7s2.4-4.3,5.4-4.3S150.8,181.7,150.5,186.1Z"/>
            <path class="cls-6" d="M142.1,183.8a1.4,1.4,0,0,1,1.9-.2c.5.4.3,1.4-.3,2a1.3,1.3,0,0,1-1.8.2C141.4,185.3,141.5,184.5,142.1,183.8Z"/>
          </g>
          <path class="cls-3" d="M100,189.2c0,2.7-2,3.2-4.6,3.2s-5.2-1.2-5.2-4a4.9,4.9,0,0,1,5-4.6C97.8,183.8,100,186.4,100,189.2Z"/>
          <path class="cls-6" d="M93.1,185.5a1.3,1.3,0,0,1,1.6.1,1,1,0,0,1-.1,1.5,1,1,0,0,1-1.6.1A1.1,1.1,0,0,1,93.1,185.5Z"/>
        </g>
        <g>
          <g>
            <path class="cls-2" d="M273.2,110c-2.4-12.3-43.2-40.9-71.8-49a59.4,59.4,0,0,0-7.9-21.1C174.6,9,131.4-4.4,87.6,16.6c-57.5,27.6-44.9,95.5-45,95.5a15.5,15.5,0,0,1,10.4-2A13,13,0,0,1,64.3,121c1.3,8.9,2.9,28.6,2.9,28.6l4.4-1.5c0,.3-.1.6-.1,1v3.2c.1,4.2.3,8.4.8,12.7.2,1.5.5,3,.7,4.5,5.4-.3,10.8-1,16.3-1.5,7.3-.7,14.6-.6,21.9-.7l81.1-.2h40.3c5.8,0,11.7-.2,17.4.9l2.3.5a33.3,33.3,0,0,0-2.8-4.8c2.3-11.1,9.4-28.1,13.2-36.7C266.7,125.5,275.3,120.9,273.2,110Zm-9.5,10.4-1.3-1c.3-2.1.1-5.4-2-9.9a17.9,17.9,0,0,1-2.1,6.6c-3.4-2.7-8-6.1-13.6-9.8a17.7,17.7,0,0,0-2.1-9.6,17.4,17.4,0,0,1-2.2,6.8c-3.9-2.4-8.3-5-13-7.5.3-1.5.4-5.7-4.1-11.4,0,0,.7,4.8-1.3,8.6-3.6-1.7-7.2-3.4-11.1-5-.2-2.1-1.3-5.5-5.1-9.5a16.7,16.7,0,0,1-.1,7.4l-4.3-1.6a76.9,76.9,0,0,0,.9-14.7,53.3,53.3,0,0,1,8.6,2.6c2.2,2,5,5.1,5.1,8.9a8.2,8.2,0,0,0,1.9-6,134.8,134.8,0,0,1,12.2,6.4c1.5,1.5,5.7,6.6,4.8,11.7,0,0,3.9-2.7,3.1-6.9,3.2,2.1,6.5,4.4,10,7h0s6.2,6.3,4.9,12.4c0,0,3.6-2.3,3.4-6.2l4.8,3.9C269.4,110.5,265.2,118.2,263.7,120.4Z"/>
            <path class="cls-2" d="M265.1,184.5l-15.3-4c-.7-.2-38.6-7-49.2-7H107.9a177.4,177.4,0,0,0-18,.6l-5,.5c-3.8.3-7.6,5.1-11.5,5.3l-5.8.3c-.4-1.8-.7-8.1-1-10s-.6-3.3-.8-4.8-.5-5.4-.7-8.3l-3.7,1.5c-.3-2.9-.5-5.8-.7-8.7-.1-.2-1.7-19.7-2.9-28.3a6.6,6.6,0,0,0-5.7-5.5,10.6,10.6,0,0,0-5.7.9L38,123.1l-1.8-9.9a114.4,114.4,0,0,1,.9-39.7C42.8,44.7,59.2,23,84.6,10.8,106.9.2,130.2-2.7,151.5,2.6s37.3,17.1,47.7,34A64.5,64.5,0,0,1,207.1,56c28.9,9.5,69.5,37.1,72.5,52.8h0c2,9.8-2.6,18.4-11.9,23.1-3.2,7.4-8.8,21-11.2,30.7.5.9,1.1,2,1.7,3.3C260.2,170.1,263.1,180.3,265.1,184.5ZM78.8,139c-.2,3.3-.5,6.5-.7,9.8v.6a26.2,26.2,0,0,0-.1,2.8c.1,3.7.3,7.1.6,10.4l4.9-.5,5.2-.5c6.4-.6,12.9-.6,19.2-.7h16.8l67.6-.2h51.2c2.6-11.5,9.3-27.6,13.2-36.4l.5-1.1-.9-.7-2.1-1.6c-1.9-1.5-3.8-3-5.9-4.4l-5.2,3.4c.5-2,.9-4.1,1.3-6.2l-3.4-2.3-2-1.3-2.1-1.4-6.9-4.1-4.3,3.1.9-5-2.4-1.2-2.6-1.4L219,98.9l-7.4-3.4-1.7,1.8a22.6,22.6,0,0,0-.1-2.6l-1.5-.6L205.7,93l-2.4-1-4.1-1.5-5.1-1.8c.3-1.7.6-3.5.8-5.2a68.5,68.5,0,0,0,.8-13.5c0-1.3-.1-2.7-.1-4.1s-.5-2.6-.7-3.9a53.5,53.5,0,0,0-7.1-18.8C169.1,12.7,128.8,4,90.5,22.3c-41.7,20-43.2,63.9-42.1,81.3a20.5,20.5,0,0,1,5.5.1,19.5,19.5,0,0,1,16.9,16.4c.8,5.3,1.6,14.2,2.2,20.8Z"/>
          </g>
          <g>
            <path class="cls-5" d="M92.1,236.1l-.3,24.1c-.4,6.3-.7,12.5-1,18.7l7.1,7.8,14.4-7.1-2.4-46.7Z"/>
            <path class="cls-6" d="M87.6,234.8l-1.8,48.1c4.6,7.5,9.2,14.9,13.7,22.4,0-.1-14.7-4.3-14.5-5.4s-7-17.1-7-17.1q2.7-27.3,5.6-54.6C85,230.4,86.3,232.6,87.6,234.8Z"/>
            <path class="cls-4" d="M157.8,51.3c-.1,0,51.8-2.1,107.1,51.6,0,0,9.8,14-3.1,21-7.9-7.8-46-42.9-108.5-49.2Z"/>
            <path class="cls-6" d="M203.7,68.3c0-.1,50.4,28.2,61.9,48.1,0,0,6.2-1.7,2.3-10.4s-57-40.5-67.7-39.9S203.7,68.3,203.7,68.3Z"/>
            <g>
              <path class="cls-3" d="M81.9,242.3c-.7-9.6-1.4-19.1-2.2-28.6-1.5,1.3,1.4,3.2-.3,4.6-21,16.2-14.8,43.5.3,51.8C83.4,261.9,82.6,251.4,81.9,242.3Z"/>
              <path class="cls-4" d="M82.9,244c-.5-6.5-.9-13-1.4-19.5-.3.3-.5.8-.8,1-10,6.7-13.7,29,1.6,39.4C84,258.3,83.4,250.7,82.9,244Z"/>
            </g>
            <path class="cls-3" d="M78.7,216.5s3.1,39.2-5.1,76.6c7.7,7.8,13,16.4,20.7,24.2,0-.1,17-15.6,28.8-32.4-1.6,2.4-6.4-1.6-9-2.9,0,0-6.9,17.8-18.1,22.5L81.3,290.8s5.1-33.9,3.6-59.3S78.7,216.5,78.7,216.5Z"/>
            <path class="cls-6" d="M74.6,139.6s-2.3,33.4,8.1,50.1c-.6,6-4.1,20.1-4.1,20.1,0,24,17.6,26.1,20.4,38.9,9.7,8.2,10.3,25.4,10.3,25.4s1.7,15.1,10.8,17.5,49.1-9.4,64.7-26.6,24.3-36.5,21.7-55.9-2.6-51.1-19.2-61.2S106.9,109,74.6,139.6Z"/>
            <path class="cls-2" d="M75.8,139.6s-1.6,37.1,11.6,50.3a16,16,0,0,1,1,10.2,60.8,60.8,0,0,0-1.6,10.6c-.1,8.5,11.7,25.2,14.5,38,9.7,8.2,8,25.4,8,25.4s1.7,15.1,10.8,17.5,49.1-9.4,64.7-26.6,24.3-36.5,21.7-55.9-2.6-51.1-19.2-61.2S108,109,75.8,139.6Z"/>
            <path class="cls-5" d="M125,187.7s2.7,6.8,7.7,9.2a23.9,23.9,0,0,0,10.4,2.1s-7.8-2.4-10.8-6.8S125,187.7,125,187.7Z"/>
            <path class="cls-5" d="M109.7,186.5s-2,8.2-7.1,10.3a25.5,25.5,0,0,1-10,2s7.1-2.8,9.8-7.9C104.2,187.4,109.7,186.5,109.7,186.5Z"/>
            <path class="cls-5" d="M104.3,181.2s-15.5-8.6-21.1-7.8-.9,8.1-.9,8.1,6.9-6.6,14.1-2.3A16.7,16.7,0,0,0,104.3,181.2Z"/>
            <path class="cls-5" d="M164.3,187.8s9.2-4.8-7.3-11.2c-5.1-2-11,.8-11,.8s9.7,1,12.5,3.3A40.6,40.6,0,0,1,164.3,187.8Z"/>
            <path class="cls-5" d="M105.1,203.9s-10.1,11.1.3,27.8l-4.2,3.3S83.4,218.2,105.1,203.9Z"/>
            <path class="cls-6" d="M169.9,172.9c-6.7-13.2-23.9-11.3-23.9-11.3s5.7-3.7,17.2-3.2c-14.1-9.4-69.7-15-87.1-3.7,0,0-1.6,19.2,6.7,18.6,6.6-.3,17,3.6,22.3,15.5,1.4,11.5-4.5,25.4-6.6,31,8.8-2.9,15,2,23.2-2,.2-.2.4,0,.6.2h.1a3.7,3.7,0,0,1,2.3.5.5.5,0,0,1,.2.6c-2,5.8-11.1,7.6-16.6,7-2.1-.2-2.2.3-4.5-1.1,11.4,16.3-5.6,11.8-3,23.9,6.4,5.5,8.7,15.1,9.6,20.8-1.2-12-3.5-43.1,3.7-41.2,8.9,2.3,14.5,11.8,35.4,2,36.1-16.7,17.8-46,17.8-46-6.4,12-16.1,17.8-27.4,15-4.7-1.1-6.3-1.6-10-3.9s-4.4-6.4-7.9-7.1C157,155.9,170,172.9,169.9,172.9Z"/>
            <path class="cls-6" d="M110.4,269.6c.2,2.8.4,4.5.4,4.5A34,34,0,0,0,110.4,269.6Z"/>
            <path class="cls-2" d="M120.1,181.2s-4.9-7.7-17.2-.4c-4.2,2.5-6.1,11.4-1.3,11.5C101.6,192.3,104.7,177.1,120.1,181.2Z"/>
            <path class="cls-2" d="M124.6,205.4s34.5,6.6,16.9,44.9c-9.5,20.9-49-3.5-42.2-9.2C120.3,223.9,131.7,218.6,124.6,205.4Z"/>
            <path class="cls-3" d="M94.6,238.9s-1.7-11.1,7.8-14.4c8.3,1.4,7.9,1.1,7.9,1.1s11.2-3.4,11.6-3.4l6.4.2a5.9,5.9,0,0,1,1.8.4s13.6,2.9,16.6,26.8a61.4,61.4,0,0,0,19.6-6.3c12.1-6.3,8.5-24.7,8.5-24.7s11.1-6.8,12.7-25.4-5.8-26.2-5.8-26.2c3-2,1.7-23.3-2.1-24.9v-.8L209,156.8s2.2,24-2,58.9c-2.6,21.4-22,50.8-21.9,50.8-23.4,32.6-35.9,35.3-58.8,32.6-6-.7-18.9-5.3-23.4-26.9-.4-6.6-9.1-28.4-12-32.8S94.6,238.9,94.6,238.9Z"/>
            <path class="cls-3" d="M171.1,162.6s16.3,7.6,16.1,18.7C187.2,181.3,192.3,163.2,171.1,162.6Z"/>
            <path class="cls-3" d="M169.1,153.5s13.7,7.6,12.7,16.1C181.8,169.6,195.3,158.2,169.1,153.5Z"/>
            <path class="cls-3" d="M104,274.4c1.2,11,1.7,27.5,19.8,29.5,0,0-9.2-9.4-7-19.3C118.1,278.3,104,274.4,104,274.4Z"/>
            <path class="cls-3" d="M208,212.1c-.1-1.8-.4-3.7-.6-5.4l-.6-5.4c-.4-3.6-.7-7.2-1.1-10.8a132.7,132.7,0,0,0-3.8-21.5,54.2,54.2,0,0,0-3.9-10.4,30.7,30.7,0,0,0-6.6-9.1,13,13,0,0,0-2.3-1.8l-1.2-.8-1.2-.7-4.6-3-9.3-5.8c-6.4-3.8-12.8-7.4-19.5-10.6a138.2,138.2,0,0,0-20.9-7.9,72.7,72.7,0,0,0-22.3-2.9c-7.5.4-15.2,2.4-21.5,6.6s-11.1,9.8-14.8,16l-.3.9a23.3,23.3,0,0,0-1.1,3.1c-.2,1.1-.4,2.1-.5,3.2a16.3,16.3,0,0,0-.3,3.1c-.1,1.1,0,2.2,0,3.2.1,4.2.3,8.5.8,12.7.3,2.1.6,4.2,1,6.3s.5,2.1.7,3.2.5,2.1.8,3.1a28.3,28.3,0,0,0,1.1,3.1,16.6,16.6,0,0,0,1.2,3.1c.4,1,.9,2,1.4,3a17.5,17.5,0,0,0,1.6,2.7l.3.8a4.4,4.4,0,0,0,.2,1c0,.3.1.7.1,1v1.2c-.1.4-.1.9-.2,1.4s-.1.6-.1.9c-.4,3.7-1.4,4.2-1.9,7.9-1.9,15.8,3.3,22.4,4.8,25.5l2.6,2.8c1.1,1.7,1.3,3.3,2.6,4.8s1.4,2.9,2.6,4.2l1.8,2,1.7,1.9,1.6,2,1.6,2.3a2.1,2.1,0,0,0,.4.6h0a17.5,17.5,0,0,1,2.3,2.4,18.9,18.9,0,0,1,2,2.7,38.1,38.1,0,0,1,2.9,6.1,45.7,45.7,0,0,1,1.8,6.6l.6,3.4a11.1,11.1,0,0,0,.2,1.7c0,.5.1,1.1.1,1.6h0a33.7,33.7,0,0,0,3.2,10.8,16.7,16.7,0,0,0,3.3,4.7,11.3,11.3,0,0,0,5.2,3,22.7,22.7,0,0,0,5.8.2l5.4-.8c3.6-.7,7.2-1.6,10.7-2.6a147.4,147.4,0,0,0,20.4-7.7A92.9,92.9,0,0,0,181,270.3l4.1-3.8,3.6-4.1c2.3-2.9,4.6-5.8,6.6-8.8a80.9,80.9,0,0,0,9.9-19.7A55.3,55.3,0,0,0,208,212.1Zm-5,21.1a76.1,76.1,0,0,1-9.6,19.1,107.7,107.7,0,0,1-6.5,8.6l-3.5,4a33.3,33.3,0,0,1-3.9,3.6,91.8,91.8,0,0,1-18.2,11.2,144.4,144.4,0,0,1-20.2,7.6c-3.4,1-6.9,1.9-10.4,2.6l-5.2.7a21.4,21.4,0,0,1-5.1-.1,10.1,10.1,0,0,1-4.1-2.4,18.4,18.4,0,0,1-2.9-4.2,33.3,33.3,0,0,1-2.9-9.9,11,11,0,0,0-.2-1.8,8.8,8.8,0,0,0-.2-1.7,22.5,22.5,0,0,0-.6-3.6,44.3,44.3,0,0,0-1.9-6.9,29.9,29.9,0,0,0-3.1-6.5,22.8,22.8,0,0,0-2.1-3,25,25,0,0,0-2.3-2.3,14,14,0,0,0,0-2.9,28.1,28.1,0,0,0-.8-3.1,25.9,25.9,0,0,0-1.4-2.9l-1.8-2.5c-1.2-1.6-.7,2.2-1.9.8a31.5,31.5,0,0,1-4.9-6.8c-.4-.8-1.5-2-2-2.8s-.9-3.4-1.4-4.2a52.6,52.6,0,0,1-2.7-4.7L82,216.7c-.3-.9-.7-1.7-1.1-2.6s-1.3-3.1-1.9-4.7a14.6,14.6,0,0,0,1.6-1.9,14.6,14.6,0,0,0,1.7-2.4v-.2c.5-1.7.2-3.4.8-5.1a20.6,20.6,0,0,0,1.1-8.5,46.4,46.4,0,0,0-1.3-9.2l-.3-.7-.9-2.8-.9-2.8c-.5-1.9-1-3.9-1.3-5.8a41.7,41.7,0,0,1-1-6,120.9,120.9,0,0,1-1.2-12.1c-.1-2-.2-4-.4-6.1a45.5,45.5,0,0,0-1.2-6,44.9,44.9,0,0,1,14.1-15.3,40,40,0,0,1,20.3-6.2,72,72,0,0,1,21.6,2.8,136.1,136.1,0,0,1,20.4,7.8,209.5,209.5,0,0,1,19.3,10.4l9.3,5.8,4.7,3,1.2.7,1.1.8a14,14,0,0,1,2,1.6,28.6,28.6,0,0,1,6.2,8.4,66.2,66.2,0,0,1,3.7,10,136.2,136.2,0,0,1,3.7,21.2c.4,3.5.7,7.1,1.1,10.7l.6,5.4c.2,1.9.5,3.6.6,5.4A55,55,0,0,1,203,233.2Z"/>
            <polygon class="cls-3" points="99.7 247.9 99.7 247.9 99.7 247.9 99.7 247.9"/>
            <path class="cls-3" d="M77.5,173.8s1.4-6,9-5.2,10.9,3.8,21.7,10.8c0,0-.8,6.3-3.9,9.1a14.9,14.9,0,0,0,2.6,3.5s2.1-1.2-2.2.3c-6.1,2-18.5,4.8-21.7-.7a14.4,14.4,0,0,1,.2-6.4c1.2-4.4,13.1-3.4,16.4-3.2a70.5,70.5,0,0,0-10.8-7.2c-3.4-1.8-10.6,2.4-10.5,1.1C78.1,178.6,78,175.1,77.5,173.8Z"/>
            <path class="cls-3" d="M122.3,178.7s2.8-.4,7.5-3.8c8-5.7,15.4-10,27.7-8.9,9.1.8,12.5,7,12.4,7s-14-4.6-22.4-.3a79.9,79.9,0,0,0-16,10.7s11-3.5,16.2-3.4c7,.2,12.6,4.4,17.1,7.6,0,0-13.6,9.1-28.7,4.4-11.5-3.6-14.1-3.6-14.1-3.6l4-2.5A17.2,17.2,0,0,1,122.3,178.7Z"/>
            <path class="cls-3" d="M125.7,206.8s3.7,2.1,4.5,3.8c4,8.7-4.2,9.4-4.2,9.4s-3.2-3.1-5.1-3.4c0,0-3,5.3-7.3,5.6a15.8,15.8,0,0,1-13.2-5.3c.9-3.6,2.5-8.9,3.6-13.5-.7,3-7.2,13.9-7,14.5a14.9,14.9,0,0,0,15.5,9s6-1.1,7.8-4.4c5.2,3,11.4.3,11.4.3,3.6-2.6,3.1-9.5-1.5-12.8C128.9,209.1,130.2,208.3,125.7,206.8Z"/>
            <path class="cls-3" d="M124.5,207.4c.5-1,17.9-1,15.6,17.2C140.1,224.6,133.2,209.9,124.5,207.4Z"/>
            <path class="cls-3" d="M104.1,201.1a54.8,54.8,0,0,0,4.2-12.9s-6-.8-7.1-2.1S102.6,194.3,104.1,201.1Z"/>
            <path class="cls-6" d="M133.9,187.9s10.2-5.9,16.1-4.8,6,3.7,6,3.7S149.1,192.5,133.9,187.9Z"/>
            <path class="cls-6" d="M87.3,187.7a23.5,23.5,0,0,1,6.6-2.1c2-.2,4.3.9,7.1,3.8a14.1,14.1,0,0,1-7.1,1.6A10.8,10.8,0,0,1,87.3,187.7Z"/>
            <g>
              <path class="cls-2" d="M105.5,243.3s-4.3-8.5,1-11.1c1.5-.8,3.8.4,7.4.8s4.4-1.8,7.6-1.4c7.9.8,10.5,3.4,13.1,10.5,3.5,9.3,4.3,10.4,4.3,10.4a66.6,66.6,0,0,1-3.3,10.8c-2.2,5.3-2.5,12-10.1,12.8-5,.5-10.1-.5-14.5-5.3-2.2-2.4-1.1-6.1-1.3-12.9A34.8,34.8,0,0,0,105.5,243.3Z"/>
              <path class="cls-3" d="M107.2,243.4s-3.1-4.7-.9-7.6,20.2-3.4,24.4,4.4,5.8,7.9,3.9,10.1.4,14.4-6.6,20.4-14.7-3.9-14.7-3.9a17.5,17.5,0,0,1-2-10C112.4,247.8,107.2,243.4,107.2,243.4Z"/>
              <path class="cls-6" d="M110.4,242.3s-1.3-3.3,1.2-4.4c6.7-3,12.4-.5,16,6.4l5,9.8s-1,12.2-8.9,12.6-10.2-3.1-10.8-11.6S110.8,243.3,110.4,242.3Z"/>
              <path class="cls-3" d="M107.7,241.1s2.2,4.1,8.9,4.2,9.6-2.1,10.7-2.9,6.2,11.7,6.2,11.7-.2,6.3-3.9,9.7c-1.2,1-5.6,2.4-8.2,1.4s-4.1-2.3-3.9-4.5.3-7.7-1.7-8.7a4.6,4.6,0,0,0-3.9,0l-4.3-9.1C107.6,242.3,107.7,241.7,107.7,241.1Z"/>
              <path class="cls-3" d="M125.2,239s-1.6-.1-2.6,2.1c0,0-.3-2.2-1.4-3s-4.7-1.7-6.1,1.5a4,4,0,0,0-4.2-1.1c-1.5.4-1.5,2.9-1.5,2.9s-1-1.1,0-3.6c0,0,7.5-1.6,7.6-1.4s6.8.7,6.8.7Z"/>
              <path class="cls-3" d="M112.8,258.5v-.2c0-.8.3-1.9,1.1-2.2s3.5.3,3.6.7a24.4,24.4,0,0,0-.1-2.7,12,12,0,0,1-3.7.5c-1.8,0-2.2-.2-1.9,1.4A7.2,7.2,0,0,0,112.8,258.5Z"/>
              <path class="cls-3" d="M113.4,263.3a5.8,5.8,0,0,1,1.8-1.7,2.9,2.9,0,0,0-2.1-.2C111.8,262.1,113.4,263.3,113.4,263.3Z"/>
              <path class="cls-3" d="M125.7,244.7c-.8-.1-1.4-.2-2.7-2.2,0,0-.5,2.9,0,3.5S125.7,244.7,125.7,244.7Z"/>
            </g>
            <path class="cls-3" d="M128.3,239.9s5.9,6.9,8.2,12.4c0,0-2.4-.7-3-2Z"/>
            <path class="cls-3" d="M79.3,209.2S83.4,232,96,241.5c0-1.8-.6-.3-.6-2.1C95.4,239.4,83.2,227.1,79.3,209.2Z"/>
            <path class="cls-3" d="M197.5,160.1a684.8,684.8,0,0,0-10.2,130.5l32.9,29,25.7-22.8s-2.2-32.8-2.1-69.6c0-13.8-.2-28.1,1.3-41.4C249.6,148.1,205.3,116.7,197.5,160.1Z"/>
            <path class="cls-6" d="M238.1,235c-.1-19.5.2-42.5,1.9-58.7,3.2-28.8-31-65.5-35.4-35.7-4.8,32.2-6.5,67.3-7.7,89.8C210.7,231.7,224.4,233.5,238.1,235Z"/>
            <path class="cls-4" d="M238.1,235c0-19.5.4-42.5,2-58.7,3-28.8-27.7-65.3-31.9-35.5-4.5,32.2-6.1,67.3-7.3,89.7C213.3,231.8,225.7,233.5,238.1,235Z"/>
            <path class="cls-5" d="M223.6,173.6l-6.9-.3-1.2,26.8h-5.2s1.9-31.5,3.1-34.3Z"/>
            <path class="cls-6" d="M238.1,236.1c-13.7-1.5-27.5-3.2-41.3-4.6-1.8,34.3-.9,54.9-.9,54.9,8.6,6.3,17.1,12.7,25.6,19.2L239,292.2s-.7-25.6-.9-55.8Z"/>
            <path class="cls-4" d="M238.1,236.1c-13.7-1.5-19.4-5.6-33.2-7-1.9,34.4-2,55.9-2,55.9l18.7,15.2,17.4-8s-.7-25.6-.9-55.8Z"/>
            <path class="cls-5" d="M233,235c-11.7-1.2-16.4-4.7-28.1-5.9-1.6,29-.5,52.6-.5,52.6L219,291.9l13.2-4.4s1-26.7.8-52.2Z"/>
            <path class="cls-3" d="M74.5,147.1s1.9-8.3,46.3-10.9c31.4-1.9,74.2,3.4,123,54.5,0,0,3.6-16.5,5.7-27,3.2-15.4,15.6-42.1,15.6-42.1S180.4,43.9,90.3,88.4c-20.8,10.4-13.2,36.2-13.2,36.2C76.2,132.1,75.4,139.6,74.5,147.1Z"/>
            <path class="cls-5" d="M78,141.8s11.5-15.1,58.1-13.4c68.4,2.6,103.3,49,103.3,49s1-5.5,3.2-16.4c2.9-14.5,12.4-37.9,12.4-37.9s-65.6-69.3-152.3-28c-16.1,7.7-27,27.3-27,27.3C76.5,128.9,77.2,135.3,78,141.8Z"/>
            <path class="cls-4" d="M77.8,141.8s10.5-15.1,53.3-13.5c62.8,2.4,94.9,48.6,94.8,48.6s.9-5.5,3-16.4c2.6-14.5,13.3-40.5,13.3-40.5s-62.1-55.7-141.5-14.2a136.2,136.2,0,0,0-25,16.6Z"/>
            <path class="cls-3" d="M203,268.4c0,5.1-.1,10.2-.2,15.3l19.4,11.9,11.2-5.9c-.2-5.7-.4-11.5-.7-17.3l-5,1.9.3,12.5-6.3,4L207,281.6c0-3.5.1-7,.1-10.6Z"/>
            <path class="cls-3" d="M206.4,207.1s1.2-40,3.5-65.7l5.3,10.8c-2.8,15.5-3.5,52.9-3.5,52.9Z"/>
            <path class="cls-3" d="M235.3,180.8c-.9,18.1-1.3,30.4-1.3,30.4l-5-1.2s.6-26.7,1.4-39.1C230.4,170.9,235.5,176.4,235.3,180.8Z"/>
            <path class="cls-3" d="M90.9,239.4s-1.3,40.5-1.6,41.9c2.4,3.6,4.8,7.1,7.1,10.7l12.9-6.9c-.6-2.2-1.3-4.4-1.9-6.6l-9.5,8.2-5.1-7.3s2.9-31,.6-38.9Z"/>
            <g>
              <path class="cls-3" d="M242.7,270.3c-15,13.4-37.6,9.9-50.9-6.3s-12.7-42.1,2.3-55.5,38.6-10.2,51.9,6.1S257.6,257,242.7,270.3Z"/>
              <path class="cls-6" d="M238.9,265.2c-9.4,8.2-32.4,6.7-43.4-6.7s-9.9-35.1,2.2-45.9,32.4-10.1,43.4,3.4S252.2,253.4,238.9,265.2Z"/>
              <path class="cls-4" d="M240.1,265c-9.3,8.1-27.2,9.5-37.3-2.9s-15-35.5-.4-48.6c11.9-10.8,29.2-11.1,41.8,4.7C254.2,230.7,253.3,253.4,240.1,265Z"/>
              <path class="cls-3" d="M193.5,240c.1,0,4.1,36.5,38.2,30.2,0,0-20.1,9.6-37.1-12.3C190.6,252.8,193.5,240,193.5,240Z"/>
              <g>
                <path class="cls-3" d="M229.6,261.8c-11.8,3.6-24.4-4.3-28.2-17.7s2.8-27.2,14.7-30.8,24.5,4.3,28.2,17.8S241.4,258.2,229.6,261.8Z"/>
                <path class="cls-4" d="M228.6,258.4c-10.1,3-20.7-3.7-23.9-15.1s2.3-23.1,12.4-26.2,20.9,3.7,24,15.1c.3,1.2.5,2.4.7,3.7C243,246,237.5,255.6,228.6,258.4Z"/>
                <path class="cls-5" d="M228.3,255.6c-9.8,3-20.1-3.3-23.1-14.1s2.5-21.9,12.3-24.9,20.2,3.3,23.1,14.1a20.5,20.5,0,0,1,.7,3.4C242.4,243.8,237,252.9,228.3,255.6Z"/>
              </g>
            </g>
            <path class="cls-6" d="M140.4,117c-.1,0,51.4-2.1,106.3,51.4,0,0,9.7,14-3,20.9-7.9-7.7-44.4-47.1-106.5-53.3C138.3,129.7,139.3,123.3,140.4,117Z"/>
            <path class="cls-4" d="M140.4,124.9c-.1,0,51.3,2.4,106.2,55.9,0,0,9.8,1.6-2.9,8.5-7.9-7.7-44.4-47.1-106.5-53.3C138.3,132.3,139.3,128.6,140.4,124.9Z"/>
            <path class="cls-3" d="M198.6,69s22,1,62.5,34.4c9.9,8.2,2.1,17.5,2.1,17.5l-2.4,6.7s15.2-3.7,12.4-17.8c-2.4-12.5-44.8-42-73.4-49.5Z"/>
            <path class="cls-3" d="M142.1,119s8.6,2.9,10.3,8.9c0,0,2.5-4.6-.8-8.1S142.1,119,142.1,119Z"/>
            <path class="cls-3" d="M208.2,70.1s7.6,4.7,7.8,11c0,0,3.6-3.9,1.2-8.1S208.1,70.1,208.2,70.1Z"/>
            <path class="cls-3" d="M229.6,80.9s6.4,6.2,5.3,12.4c0,0,4.3-3.1,2.9-7.7S229.6,80.9,229.6,80.9Z"/>
            <path class="cls-3" d="M248,93.3s6.2,6.4,4.9,12.5c0,0,4.4-2.9,3.2-7.6S248,93.3,248,93.3Z"/>
            <path class="cls-3" d="M158.5,120.7s8.5,2.9,10.2,8.9c0,0,2.6-4.5-.7-8.1S158.5,120.7,158.5,120.7Z"/>
            <path class="cls-3" d="M178.1,127.3s7.9,4.2,8.5,10.4c0,0,3.3-4,.7-8.1S178.1,127.3,178.1,127.3Z"/>
            <path class="cls-3" d="M196,134.4s7.4,5.1,7.3,11.3c0,0,3.7-3.6,1.6-8S196,134.4,196,134.4Z"/>
            <path class="cls-3" d="M213.8,145.3s7,5.6,6.5,11.8c0,0,3.9-3.4,2.1-7.9S213.8,145.3,213.8,145.3Z"/>
            <path class="cls-3" d="M231.8,158.6s6.1,6.5,4.7,12.6c0,0,4.4-2.8,3.2-7.5S231.8,158.6,231.8,158.6Z"/>
            <path class="cls-3" d="M159.5,129.7s.8,5.4-1.7,9.4,6.5,1.3,6.5,1.3A115.3,115.3,0,0,0,159.5,129.7Z"/>
            <path class="cls-3" d="M223.4,84.4s.7,5.4-1.9,9.4,5.8,2.7,5.8,2.7S229,91.7,223.4,84.4Z"/>
            <path class="cls-3" d="M242.6,96.6s-.4,5.4-3.7,8.8,5,3.8,5,3.8S246.6,104.8,242.6,96.6Z"/>
            <path class="cls-3" d="M260.4,109.4s-.4,5.4-3.8,8.8,5,3.8,5,3.8S264.4,117.6,260.4,109.4Z"/>
            <path class="cls-3" d="M205.8,78.5s1.2,5.3-.9,9.5,6,2.1,6,2.1S212.1,85.1,205.8,78.5Z"/>
            <path class="cls-3" d="M176.9,135.6s-.3,7.5-4.1,8.3,6.6,1.4,6.6,1.4S180.1,142.2,176.9,135.6Z"/>
            <path class="cls-3" d="M194.6,143.5s-.3,7.4-4,8.2,6.5,1.4,6.5,1.4S197.9,150.1,194.6,143.5Z"/>
            <path class="cls-3" d="M210.9,152.2s-.4,7.4-4.1,8.2,6.5,1.4,6.5,1.4S214.1,158.8,210.9,152.2Z"/>
            <path class="cls-3" d="M227.2,163.7s-1,7.3-4.8,7.8,6.3,2,6.3,2S229.8,170.5,227.2,163.7Z"/>
            <path class="cls-3" d="M243.4,177.4s-1,7.3-4.8,7.8,6.3,2,6.3,2S246,184.2,243.4,177.4Z"/>
            <path class="cls-3" d="M249.5,163.7s16.3,22.6-6.9,31.1l-1.2-4.1s5.3.1,8.4-10.3-2.6-15.3-2.6-15.3Z"/>
            <path class="cls-3" d="M67.1,149.5s-1.6-19.7-2.9-28.7a13.1,13.1,0,0,0-11.3-10.9,16.3,16.3,0,0,0-10.4,2c.1,0-12.5-68,45-95.5,43.9-21,87-7.6,106,23.3s2,65,2.1,65-29.6-15.9-44.7,2.5c-8.8,10.7-11.1,38-11.1,38S95.2,138.1,67.1,149.5Z"/>
            <path class="cls-6" d="M72.5,137.9s-.3-9.7-1.8-20.1c-2.9-19-22-15.7-22-15.7s-5.9-52.7,40-78.6C118.6,6.7,164.1,10.1,184.6,40c17.4,25.3,6.1,53.6,6.1,53.6s-28.2-12.7-47,7.4c-10,10.8-12.7,33.9-12.7,33.9S104.4,129.4,72.5,137.9Z"/>
            <path class="cls-4" d="M72.5,137.9s.8-14.2-.7-24.7C68.9,94.3,53.3,98.6,53.3,98.6S44,55,90,29.1c29.8-16.8,74.1-19,94.6,10.9,17.4,25.3,6.1,53.6,6.1,53.6s-28.2-12.7-47,7.4c-10,10.8-12.7,33.9-12.7,33.9S104.4,129.4,72.5,137.9Z"/>
            <path class="cls-6" d="M57.3,92.8c0,.1-4.6-49.7,47.4-67.1,37.3-12.4,83.8,13.4,79.5,57.4.1,0-49.7-9.8-57.8,37.5,0,0-26.7-3.8-49.3,4C77.1,124.6,80.2,89.3,57.3,92.8Z"/>
            <path class="cls-3" d="M57.3,92.8c0,.1-4.6-49.7,47.4-67.1,37.3-12.4,78.9,10.5,76,51.9.1,0-49.1-9.2-57.2,38.1,0,0-23.1-2.6-45.7,5.2C77.8,120.9,76.1,89.5,57.3,92.8Z"/>
            <path class="cls-5" d="M62.5,88.5c-.1-2.8-1.7-45.4,43.8-57.8,27.6-7.5,63.8,4.8,68.2,42.4.1,0-44.6-6.5-55.3,37.6,0,0-14-3.5-37.5,2.3C81.7,113,80.7,89.7,62.5,88.5Z"/>
            <path class="cls-3" d="M96.1,47.9s4.9-14.7,7.2-19.5h5.3c1.4,6.1,2.9,12.2,4.3,18.4l-15-1.5"/>
            <path class="cls-6" d="M99.7,45.4c1.6-4.8,3.1-9.7,4.6-14.5l3,14.9Z"/>
            <path class="cls-3" d="M91.9,97s5.4,12.6,8,16.8h4.2l6.3-18L94,99.3"/>
            <path class="cls-4" d="M95.9,94.7c1.8,4.1,3.7,8.1,5.5,12.1l4.5-12.1Z"/>
            <path class="cls-3" d="M81.6,66.3,58.2,77.8l3.4,1.8,21.7,3.8C82.8,77.7,82.2,72,81.6,66.3Z"/>
            <path class="cls-4" d="M84.5,67.9,68.1,76l17.7,3.1C85.4,75.4,85,71.6,84.5,67.9Z"/>
            <path class="cls-6" d="M84.5,67.9,68.1,76l17.6-1.4Z"/>
            <path class="cls-3" d="M120,56.3c16.2,2.9,32.4,5.9,48.5,9-15.5,5.2-30.9,10.4-46.3,15.8C121.4,72.8,120.7,64.5,120,56.3Z"/>
            <path class="cls-6" d="M120.2,61.2l31.4,5.5-29.9,8.5Z"/>
            <path class="cls-4" d="M123.3,67.3l28.3-.6-29.9,8.5C122.2,72.6,122.8,70,123.3,67.3Z"/>
            <path class="cls-3" d="M83.3,83.4l-7.5,18.5,16.8-4.5Z"/>
            <path class="cls-4" d="M89.2,78.3,81.7,96.8l16.8-4.5Z"/>
            <path class="cls-3" d="M73.1,47.2l8.7,18.5c3.6-5.5,7.2-10.9,10.7-16.4Z"/>
            <path class="cls-6" d="M77.5,50.1l8.7,18.5L96.9,52.2Z"/>
            <path class="cls-3" d="M140.3,35,111.9,46.1l11.9,18.5Z"/>
            <path class="cls-6" d="M130.9,41.9l-19.6,7.7,8.2,12.7Z"/>
            <path class="cls-4" d="M130.9,41.9,115.1,55.5l4.4,6.8Z"/>
            <path class="cls-3" d="M123.1,79.9l-9.6,16.2,16.4-.3C127.6,90.5,125.3,85.2,123.1,79.9Z"/>
            <path class="cls-4" d="M117.8,76.1l-9.6,16.2,16.4-.3C122.3,86.7,120,81.4,117.8,76.1Z"/>
            <path class="cls-3" d="M125.3,71.3c-1.1,22.7-14.9,31-26.8,29.6-8.6-1-19.9-10.8-18.2-30.6,1.1-14,11.8-26.4,24.5-27.4S126.1,55,125.3,71.3Z"/>
            <path class="cls-4" d="M119.4,70.5c-1,18.7-10.5,26.5-20.3,25.4C92,95.1,83.6,86,85,69.6c1-11.6,8.8-22.4,19.3-21.7S120,57,119.4,70.5Z"/>
            <path class="cls-3" d="M116.9,69.9c-.9,16.6-9,23.6-17.4,22.6-6.1-.7-13.2-8.7-12-23.2C88.4,59,95.2,49.5,104.1,50S117.5,58,116.9,69.9Z"/>
            <path class="cls-4" d="M118.2,68.7c-.6,15.3-10.9,19.5-19.5,19.4-6.6,0-14.4-7.1-13.3-20.5.8-9.5,7.8-19.9,17.5-20S118.7,57.6,118.2,68.7Z"/>
            <path class="cls-6" d="M113.5,68.2c-.9,15.3-9.1,19.2-16,19.3-5.3,0-13.8-6.3-12.7-19.7.9-9.5,9.1-20,16.9-20.3S114.1,57.1,113.5,68.2Z"/>
            <path class="cls-5" d="M115.2,70.7c-.7,13.7-9.2,17.5-16.4,17.4-5.5,0-13.2-3.5-10.9-18.1,1.4-8.4,6.7-17.8,14.7-17.9S115.6,60.9,115.2,70.7Z"/>
            <path class="cls-3" d="M108.8,70.6c-.4,8-4.5,10.6-8.8,10.1s-6.8-3.6-6.2-10.5c.4-4.9,2.8-10.4,7.4-10.5S109.1,64.9,108.8,70.6Z"/>
            <path class="cls-7" d="M105.5,70.4c-.3,5.5-2.8,7.4-5.5,7.1s-3.5-2.4-3.6-7.3,1.8-7.3,5.2-7.3S105.7,66.4,105.5,70.4Z"/>
            <path class="cls-6" d="M101.7,68.9c-.1,2.6-1.3,3.5-2.6,3.4s-2-1.2-1.8-3.5,1.2-3.5,2.5-3.5S101.8,67,101.7,68.9Z"/>
            <path class="cls-3" d="M91,61.5s1.1-8.9,9.8-10.3c5.9-.9,11.1,2.2,12.2,8.6a11.3,11.3,0,0,0-11.9-6.3C94.7,54.3,91,61.5,91,61.5Z"/>
            <path class="cls-3" d="M140.3,114.3c2.7,0,5.4.2,8,.4l3.8.5,3.9.6,3.8.7,3.8.8,3.7,1,3.7,1c2.5.7,5,1.5,7.4,2.4l3.6,1.2,3.6,1.5c2.4.9,4.8,1.9,7.1,3l6.9,3.3,6.7,3.7c2.3,1.1,4.4,2.6,6.6,3.9l3.2,2,3.2,2.1,6.2,4.4,3.1,2.3,2.9,2.4,5.9,4.8c2,1.6,3.8,3.3,5.7,5l5.5,5.2h.2l.2.3a11.9,11.9,0,0,1,.9,1.5l.8,1.5a16.6,16.6,0,0,1,1.2,3.1,20.2,20.2,0,0,1,.9,3.3c.1,1.2.2,2.4.2,3.6l-.3,1.9a6.1,6.1,0,0,1-.5,1.8,5.1,5.1,0,0,1-.7,1.7l-1,1.7-1.2,1.4a8.6,8.6,0,0,1-1.4,1.3,18.7,18.7,0,0,1-2.9,2h0l-1.7,1-1.6-1.5c-1.8-1.8-3.5-3.5-5.4-5.2l-5.5-5-5.7-4.7c-2-1.5-3.9-3.1-5.9-4.5s-4-3-6.1-4.3-4.1-2.8-6.3-4.1l-3.1-1.9-1.6-1-1.7-.9-6.5-3.5-6.8-3.2c-2.2-1-4.6-1.9-6.9-2.8a53,53,0,0,0-7-2.6,73.7,73.7,0,0,0-7.1-2.3l-7.2-2c-2.4-.6-4.8-1-7.3-1.5l-3.6-.8-3.7-.5-3.7-.5-1.9-.2a1.9,1.9,0,0,1-1.8-1h0l-2.8-.4c.1-.9.3-1.8.4-2.7l3.6-21.2Zm2.4,5.4c-.9,5.6-1.9,11.2-2.8,16.7l-2.4-3.1h0c.7-.8,1.4-.5,2-.5l1.9.3,3.9.5,3.9.6,3.8.8,7.6,1.6,7.5,2.1c2.6.6,5,1.6,7.4,2.4s5,1.7,7.3,2.7l7.2,3.1,6.9,3.4,6.8,3.8,1.7.9,1.6,1,3.3,2.1c2.2,1.3,4.3,2.8,6.4,4.3s4.2,3,6.3,4.5,4,3.2,5.9,4.8,3.9,3.4,5.8,5.1,3.8,3.4,5.6,5.2l5.3,5.4-3.2-.4h0l1.1-.7.9-.7.9-.8.8-.9.6-1,.4-1,.3-1.1a4.9,4.9,0,0,0,.1-1.2,14.7,14.7,0,0,0-.7-5,24.4,24.4,0,0,0-1-2.4,3.5,3.5,0,0,0-.7-1.2,5.4,5.4,0,0,0-.6-1.1l.3.4-5.4-5c-1.9-1.7-3.6-3.4-5.5-5s-3.9-3.1-5.8-4.7l-2.9-2.3c-.9-.8-2-1.4-3-2.2l-6-4.3-3.1-2-3.2-2c-2.1-1.3-4.1-2.7-6.3-3.8l-6.5-3.5-6.8-3.3c-2.2-1.1-4.5-2-6.8-2.9l-3.4-1.4-3.5-1.2-7.1-2.3-3.6-1-3.6-.9-3.6-.8-3.7-.6-3.6-.6-3.7-.4Z"/>
            <path class="cls-3" d="M163.8,246s6.2-6.8,3.9-20.6a16.8,16.8,0,0,1,5.5,15C171.7,249.8,163.8,246,163.8,246Z"/>
            <path class="cls-3" d="M141.5,252.4s19.6-1.7,19.8-21.6c0,0,6,7.2,3.7,16.4S141.5,252.4,141.5,252.4Z"/>
            <path class="cls-5" d="M149.6,270.8s8.2-4.3,10.2-11.3c0-.1,2.4,2.9,1.9,5.4,0,0,8.7-8.8,7.8-18.2,0,0,3.6,16-8.8,24.7a17.4,17.4,0,0,0-.6-6.1S159.1,270,149.6,270.8Z"/>
            <path class="cls-3" d="M231.9,248.9h0c-3.5.6-6.7-3.8-8.3-11a9.3,9.3,0,0,0,6.6-10.1c-.6-4.7-4.8-7.9-10-7.1s-10.8,6.7-10.1,11.6c.4,2.3,1.9,3.9,3.6,3.6l.5-.2c-.6-.2-1.9-.8-2.2-3.1s3.8-8,9-8.8,6.9,1,7.3,3.7-4,7.9-7.9,8.5h-1.3c.8-3.6,1.7-7,2.2-7a.8.8,0,0,0,.2-.6,3.1,3.1,0,0,0-3-1.9c-1.3.2-4.2,15.1-3.8,17.7s1.7,2.8,2.7,2.6.2-.9.2-1.1a47.8,47.8,0,0,1,1.1-8,5.3,5.3,0,0,0,1.6.4c1.5,8.1,6.2,12.9,11.2,12.1,1.9-.3,3.1-1.2,3.3-2.6A4.1,4.1,0,0,1,231.9,248.9Z"/>
            <path class="cls-3" d="M84.1,192.4s-1.9,10.9-1.8,18.9S93.4,234.1,97,238c5.8,6.2-3.4,3.9-13.9-13.5-4.1-7-5.1-12.7-3.5-18.6S84.1,192.4,84.1,192.4Z"/>
            <g>
              <path class="cls-3" d="M152.1,186a5.5,5.5,0,0,1-5.5,5.4c-3,0-5.4-3.6-5.4-6.6s2.4-4.3,5.4-4.3S152.4,181.5,152.1,186Z"/>
              <path class="cls-6" d="M143.7,183.7a1.4,1.4,0,0,1,1.9-.2c.5.4.3,1.4-.3,2a1.2,1.2,0,0,1-1.8.1C143,185.2,143.1,184.4,143.7,183.7Z"/>
            </g>
            <path class="cls-3" d="M101.6,189c0,2.8-2,3.3-4.6,3.3s-5.2-1.3-5.2-4a4.8,4.8,0,0,1,5-4.6C99.3,183.7,101.6,186.3,101.6,189Z"/>
            <path class="cls-6" d="M94.7,185.3a1.2,1.2,0,0,1,1.5.2.9.9,0,0,1,0,1.5,1.2,1.2,0,0,1-1.7.1A1.3,1.3,0,0,1,94.7,185.3Z"/>
          </g>
        </g>
        <g>
          <path class="cls-3" d="M308.5,322.2a2595.3,2595.3,0,0,0-300.4-.1c0,26.9-.1,53.8-.1,80.7a639.4,639.4,0,0,1,77.4-13.5l7.4-7,7.2,5.5a645.1,645.1,0,0,1,208.5,15.4Z"/>
          <path class="cls-3" d="M290.9,345.1a1345.2,1345.2,0,0,0-189.4-5.5c0-10.7.1-21.5.1-32.2q94.7-1,189.3,1.4Z"/>
          <path class="cls-3" d="M45.7,344.3l-24.8,2.4V310.2l25-.7C45.8,321.1,45.8,332.7,45.7,344.3Z"/>
          <g>
            <g>
              <path class="cls-3" d="M12.2,301.6v8.9H14c0,26.4,0,52.7-.1,79.1l8.9-1.8c0-14.3,0-28.7.1-43.1l14.2-1.3,3.5,3c0,12.8,0,25.5-.1,38.3l8.9-1.4c.1-13.6.1-27.3.2-41L45,338.6l4.6-4.6c0-8.2.1-16.4.1-24.6-3-2.6-5.9-5.3-8.9-8.1Zm28.5,29.7-3.6,3.6L22.9,336V310.1l14.3-.3,3.6,3.2C40.7,319.1,40.7,325.2,40.7,331.3Z"/>
              <path class="cls-3" d="M55.2,387.6,34.7,391c.1-13.9.1-27.9.2-41.9h-.2l-6.1.6v42.6c-6.8,1.3-13.5,2.7-20.3,4.2v-80H6.4V295.9H43.2c4.1,3.8,8.2,7.6,12.3,11.2v28.8l-2.1,2,2.1,1.6C55.3,355.6,55.2,371.6,55.2,387.6ZM28.7,330l6-.4a.2.2,0,0,0,.2-.2c0-4.6,0-9.3.1-14h-.2l-6.1.2Z"/>
            </g>
            <g>
              <path class="cls-3" d="M65.7,313.2l-8.1,7.5c-.1,18.3-.2,36.6-.2,55l8,6.2L81.2,380l8.1-7.8c.1-17.5.1-35.1.2-52.6l-8-6.8ZM69.2,373l-2.4-1.9c.1-15.8.2-31.6.2-47.4l2.4-2.2,8.2-.3,2.4,2c0,15.5-.1,31.1-.2,46.6l-2.4,2.3Z"/>
              <path class="cls-3" d="M83.6,384.8c-6.9.8-13.8,1.6-20.6,2.6l-11.4-8.8c.1-19.9.1-39.9.2-59.9L63.3,308l20.6-.3,11.4,9.7c-.1,18.8-.2,37.6-.2,56.4C91.2,377.4,87.4,381.1,83.6,384.8Zm-11-17.3H74c.1-13.7.2-27.3.2-41H72.8C72.7,340.2,72.7,353.8,72.6,367.5Z"/>
            </g>
            <g>
              <path class="cls-3" d="M104.2,312.4l-8.1,7C96,324,96,328.5,96,333l22.5,18.3c-.1,5.2-.1,10.5-.1,15.7l-2.4,2.2-8.2.5-2.4-2v-4.3l-9.5.6v7.7l8,6.3c5.3-.4,10.6-.8,15.9-1l8.1-7.2v-22l-22.4-18.4v-6.9l2.4-2.1,8.2-.2,2.4,2v4.3l9.5-.2v-7.4l-8-6.7Z"/>
              <path class="cls-3" d="M122.2,381.7c-6.9.4-13.8.8-20.7,1.4L90,374.2c.1-4.9.1-9.8.1-14.7,7-.5,14.1-1,21.1-1.3v6.3h1.4v-11c-7.4-6-14.9-12-22.4-18.2,0-5.9.1-11.8.1-17.8l11.5-10,20.6-.2,11.4,9.5v14.3l-17.4.3,17.4,14.2c-.1,8.7-.1,17.4-.1,26Zm-10.9-54.5,1.4,1.2v-3.2h-1.4Z"/>
            </g>
            <g>
              <path class="cls-3" d="M157.1,336.9H144c0-8.3.1-16.7.1-25h-11V320h1.5c0,18.8-.1,37.6-.1,56.3l9.5-.2V344.9h13.1V376h9.5c0-21.3,0-42.7-.1-64h-9.4Z"/>
              <path class="cls-3" d="M172.4,381c-7-.2-14.1-.2-21.1-.2V349.6h-1.5v31.2c-7,.1-14.1.3-21.1.6,0-18.8,0-37.7.1-56.5h-1.5V307.2h22.6v24.9h1.4v-25h21Q172.5,344.1,172.4,381Z"/>
            </g>
            <g>
              <path class="cls-3" d="M173.1,319.9h11.3c0,18.8.1,37.7.1,56.5l9.5.4c-.1-18.9-.1-37.8-.2-56.8l11.3.2v-8l-32-.3Z"/>
              <path class="cls-3" d="M199.8,382.1l-21.1-1c-.1-18.7-.1-37.5-.1-56.3H167.3V307.2l43.5.2c.1,6,.1,12,.1,18l-11.2-.3C199.7,344.1,199.8,363.1,199.8,382.1Z"/>
            </g>
            <g>
              <path class="cls-3" d="M210.2,320.4h1.5c0,19.2.1,38.3.2,57.5,10.6.8,21.3,1.9,31.9,3.2v-8.4q-11.2-1.2-22.5-2.1c0-8.1,0-16.1-.1-24.2l15,.9v-8.3l-15-.7c0-5.9-.1-11.8-.1-17.7l22.5.7V313c-11.2-.3-22.3-.5-33.5-.6C210.1,315,210.2,317.7,210.2,320.4Z"/>
              <path class="cls-3" d="M249.7,387.1c-14.5-2-29.1-3.5-43.6-4.6-.1-19.1-.2-38.1-.2-57.2h-1.5c0-5.9-.1-11.9-.1-17.8q22.5.2,45,.6c0,6.2.1,12.5.1,18.8q-11.2-.6-22.5-.9c.1,2.6.1,5.1.1,7.7l15,.7V353l-15-1.1c.1,4.7.1,9.5.1,14.2,7.5.6,15,1.3,22.5,2.2C249.6,374.5,249.6,380.8,249.7,387.1Z"/>
            </g>
            <g>
              <path class="cls-3" d="M248.7,321.6h1.5q0,30.3.2,60.4l9.4,1.3q0-34.9-.2-69.9l-11-.3C248.6,316,248.6,318.8,248.7,321.6Z"/>
              <path class="cls-3" d="M265.6,389.5c-6.9-1.2-13.9-2.2-21-3.1,0-19.9-.1-39.9-.2-59.8h-1.5c0-6.2-.1-12.4-.1-18.6l22.5.4Z"/>
            </g>
            <g>
              <path class="cls-3" d="M293.8,301.5c.1,6.3.1,12.6.1,18.9-6.5-6.6-13-12.9-19.5-19.1h-9.1v8.2h1.8l.3,74,8.9,1.4-.3-70.2c6,5.8,12,11.8,17.9,18,0,18.5.1,36.9.1,55.4l8.8,1.7V301.6Z"/>
              <path class="cls-3" d="M308.6,396.8l-20.3-4.3c-.1-19.3-.1-38.6-.2-57.9-2.1-2.2-4.2-4.3-6.2-6.5,0,21.1.1,42.2.1,63.3-6.8-1.3-13.6-2.4-20.4-3.5l-.3-73.3h-1.8V295.9h17.3l11.3,10.8c0-3.6,0-7.2-.1-10.8h20.6Z"/>
            </g>
          </g>
          <g>
            <path class="cls-6" d="M12.2,301.6v8.9H14c0,26.4,0,52.7-.1,79.1l8.9-1.8c0-14.3,0-28.7.1-43.1l14.2-1.3,3.5,3c0,12.8,0,25.5-.1,38.3l8.9-1.4c.1-13.6.1-27.3.2-41L45,338.6l4.6-4.6c0-8.2.1-16.4.1-24.6-3-2.6-5.9-5.3-8.9-8.1Zm28.5,29.7-3.6,3.6L22.9,336V310.1l14.3-.3,3.6,3.2C40.7,319.1,40.7,325.2,40.7,331.3Z"/>
            <path class="cls-6" d="M65.7,313.2l-8.1,7.5c-.1,18.3-.2,36.6-.2,55l8,6.2L81.2,380l8.1-7.8c.1-17.5.1-35.1.2-52.6l-8-6.8ZM69.2,373l-2.4-1.9c.1-15.8.2-31.6.2-47.4l2.4-2.2,8.2-.3,2.4,2c0,15.5-.1,31.1-.2,46.6l-2.4,2.3Z"/>
            <path class="cls-6" d="M104.2,312.4l-8.1,7C96,324,96,328.5,96,333l22.5,18.3c-.1,5.2-.1,10.5-.1,15.7l-2.4,2.2-8.2.5-2.4-2v-4.3l-9.5.6v7.7l8,6.3c5.3-.4,10.6-.8,15.9-1l8.1-7.2v-22l-22.4-18.4v-6.9l2.4-2.1,8.2-.2,2.4,2v4.3l9.5-.2v-7.4l-8-6.7Z"/>
            <path class="cls-6" d="M157.1,336.9H144c0-8.3.1-16.7.1-25h-11V320h1.5c0,18.8-.1,37.6-.1,56.3l9.5-.2V344.9h13.1V376h9.5c0-21.3,0-42.7-.1-64h-9.4Z"/>
            <path class="cls-6" d="M173.1,319.9h11.3c0,18.8.1,37.7.1,56.5l9.5.4c-.1-18.9-.1-37.8-.2-56.8l11.3.2v-8l-32-.3Z"/>
            <path class="cls-6" d="M210.2,320.4h1.5c0,19.2.1,38.3.2,57.5,10.6.8,21.3,1.9,31.9,3.2v-8.4q-11.2-1.2-22.5-2.1c0-8.1,0-16.1-.1-24.2l15,.9v-8.3l-15-.7c0-5.9-.1-11.8-.1-17.7l22.5.7V313c-11.2-.3-22.3-.5-33.5-.6C210.1,315,210.2,317.7,210.2,320.4Z"/>
            <path class="cls-6" d="M248.7,321.6h1.5q0,30.3.2,60.4l9.4,1.3q0-34.9-.2-69.9l-11-.3C248.6,316,248.6,318.8,248.7,321.6Z"/>
            <path class="cls-6" d="M293.8,301.5c.1,6.3.1,12.6.1,18.9-6.5-6.6-13-12.9-19.5-19.1h-9.1v8.2h1.8l.3,74,8.9,1.4-.3-70.2c6,5.8,12,11.8,17.9,18,0,18.5.1,36.9.1,55.4l8.8,1.7V301.6Z"/>
          </g>
          <g class="cls-8">
            <g>
              <path class="cls-9" d="M12.2,301.6v8.9H14c0,26.4,0,52.7-.1,79.1l8.9-1.8c0-14.3,0-28.7.1-43.1l14.2-1.3,3.5,3c0,12.8,0,25.5-.1,38.3l8.9-1.4c.1-13.6.1-27.3.2-41L45,338.6l4.6-4.6c0-8.2.1-16.4.1-24.6-3-2.6-5.9-5.3-8.9-8.1Zm28.5,29.7-3.6,3.6L22.9,336V310.1l14.3-.3,3.6,3.2C40.7,319.1,40.7,325.2,40.7,331.3Z"/>
              <path class="cls-9" d="M65.7,313.2l-8.1,7.5c-.1,18.3-.2,36.6-.2,55l8,6.2L81.2,380l8.1-7.8c.1-17.5.1-35.1.2-52.6l-8-6.8ZM69.2,373l-2.4-1.9c.1-15.8.2-31.6.2-47.4l2.4-2.2,8.2-.3,2.4,2c0,15.5-.1,31.1-.2,46.6l-2.4,2.3Z"/>
              <path class="cls-9" d="M104.2,312.4l-8.1,7C96,324,96,328.5,96,333l22.5,18.3c-.1,5.2-.1,10.5-.1,15.7l-2.4,2.2-8.2.5-2.4-2v-4.3l-9.5.6v7.7l8,6.3c5.3-.4,10.6-.8,15.9-1l8.1-7.2v-22l-22.4-18.4v-6.9l2.4-2.1,8.2-.2,2.4,2v4.3l9.5-.2v-7.4l-8-6.7Z"/>
              <path class="cls-9" d="M157.1,336.9H144c0-8.3.1-16.7.1-25h-11V320h1.5c0,18.8-.1,37.6-.1,56.3l9.5-.2V344.9h13.1V376h9.5c0-21.3,0-42.7-.1-64h-9.4Z"/>
              <path class="cls-9" d="M173.1,319.9h11.3c0,18.8.1,37.7.1,56.5l9.5.4c-.1-18.9-.1-37.8-.2-56.8l11.3.2v-8l-32-.3Z"/>
              <path class="cls-9" d="M210.2,320.4h1.5c0,19.2.1,38.3.2,57.5,10.6.8,21.3,1.9,31.9,3.2v-8.4q-11.2-1.2-22.5-2.1c0-8.1,0-16.1-.1-24.2l15,.9v-8.3l-15-.7c0-5.9-.1-11.8-.1-17.7l22.5.7V313c-11.2-.3-22.3-.5-33.5-.6C210.1,315,210.2,317.7,210.2,320.4Z"/>
              <path class="cls-9" d="M248.7,321.6h1.5q0,30.3.2,60.4l9.4,1.3q0-34.9-.2-69.9l-11-.3C248.6,316,248.6,318.8,248.7,321.6Z"/>
              <path class="cls-9" d="M293.8,301.5c.1,6.3.1,12.6.1,18.9-6.5-6.6-13-12.9-19.5-19.1h-9.1v8.2h1.8l.3,74,8.9,1.4-.3-70.2c6,5.8,12,11.8,17.9,18,0,18.5.1,36.9.1,55.4l8.8,1.7V301.6Z"/>
            </g>
          </g>
          <g>
            <path class="cls-6" d="M39.9,303.3l7.7,7c0,7.7-.1,15.4-.1,23.1l-3.9,3.9L42,338.8l1.6,1.3,3.9,3.1c-.1,12.8-.1,25.6-.2,38.4l-4.7.7c.1-12,.1-24.1.1-36.2v-.8l-.6-.5-3.5-3-.6-.6h-.9l-14.2,1.3-2.1.2v2c-.1,13.8-.1,27.5-.1,41.3L16,387c0-25.6.1-51.1.1-76.7v-2H14.3v-4.6l25.6-.4M20.8,338.2l2.1-.2,14.2-1.1H38l.6-.6,3.6-3.6.6-.6v-.8c0-6.1,0-12.2.1-18.3v-.8l-.7-.5-3.5-3.3-.6-.5h-.9l-14.3.3H20.8v30m20-36.9-28.6.3v8.9H14c0,26.4,0,52.7-.1,79.1l8.9-1.8c0-14.3,0-28.7.1-43.1l14.2-1.3,3.5,3c0,12.8,0,25.5-.1,38.3l8.9-1.4c.1-13.6.1-27.3.2-41L45,338.6l4.6-4.6c0-8.2.1-16.4.1-24.6-3-2.6-5.9-5.3-8.9-8.1ZM22.9,336V310.1l14.3-.3,3.6,3.2c-.1,6.1-.1,12.2-.1,18.3l-3.6,3.6L22.9,336Z"/>
            <path class="cls-6" d="M80.6,314.6c2.2,2,4.5,3.9,6.8,5.8-.1,17.1-.2,34.2-.2,51.3q-3.5,3.2-6.9,6.6l-14,1.6-6.8-5.3c0-17.7.1-35.5.2-53.2l6.8-6.4,14.1-.4M68.3,375h.9l8.2-.9h.9l.6-.6,2.4-2.4.6-.6v-.7c.1-15.5.2-31,.2-46.4v-.8l-.6-.5-2.4-2.1-.6-.5h-.9l-8.1.3h-.9l-.6.6-2.5,2.2-.6.6v.8c-.1,15.9-.1,31.7-.2,47.5v.8l.6.5,2.4,1.9.6.5m13.2-62.2-15.8.4-8.1,7.5c-.1,18.3-.2,36.6-.2,55l8,6.2L81.2,380l8.1-7.8c.1-17.5.1-35.1.2-52.6l-8-6.8ZM69.2,373l-2.4-1.9c.1-15.8.2-31.6.2-47.4l2.4-2.2,8.2-.3,2.4,2c0,15.5-.1,31.1-.2,46.6l-2.4,2.3-8.2.9Z"/>
            <path class="cls-6" d="M119.1,314l6.8,5.6v5h-5.3v-3.3l-.6-.5-2.4-2-.6-.5h-.9l-8.2.2h-.8l-.6.5-2.5,2.1-.6.6v8.4l.6.6,21.8,17.8v20.6l-6.9,6-14.1.9L98,370.8v-5.1l5.3-.3c0,.8-.1,1.6-.1,2.5v.7l.7.5,2.4,1.9.6.5h.9l8.2-.4h.8l.7-.5,2.4-2.2.6-.5v-.8c0-5.2.1-10.5.1-15.7v-.7l-.6-.5L98.1,332.2c0-4,.1-8,.1-12.1l6.8-5.9,14.1-.2m.9-1.8-15.8.2-8.1,7C96,324,96,328.5,96,333l22.5,18.3c-.1,5.2-.1,10.5-.1,15.7l-2.4,2.2-8.2.5-2.4-2v-4.3l-9.5.6v7.7l8,6.3c5.3-.4,10.6-.8,15.9-1l8.1-7.2v-22l-22.4-18.4v-6.9l2.4-2.1,8.2-.2,2.4,2v4.3l9.5-.2v-7.4l-8-6.7Z"/>
            <path class="cls-6" d="M164.4,313.7q.2,30.3.1,60.6h-5.3V343H141.9v31.3h-5.3c0-18.2.1-36.4.1-54.6v-1.7h-1.5v-4.4H142c-.1,7.7-.1,15.5-.1,23.2v1.8h17.3v-25h5.2m2.1-1.7h-9.4v24.9H144c0-8.3.1-16.7.1-25h-11V320h1.5c0,18.8-.1,37.6-.1,56.3l9.5-.2V344.9h13.1V376h9.5c0-21.3,0-42.7-.1-64Z"/>
            <path class="cls-6" d="M203,314v4.5l-9.2-.2h-2.1v1.8c.1,18.3.1,36.6.2,54.9l-5.3-.2V318.3H175.2v-4.4l27.8.2m2.1-1.7-32-.3v7.9h11.3c0,18.8.1,37.7.1,56.5l9.5.4c-.1-18.9-.1-37.8-.2-56.8l11.3.2v-8Z"/>
            <path class="cls-6" d="M241.5,314.8v4.7q-10.2-.5-20.4-.6H219v1.8c0,5.9.1,11.8.1,17.7v1.8h2.1l12.9.7v4.6l-12.9-.8h-2.1v1.8c0,8,.1,16.1.1,24.1v1.8l2.1.2c6.8.5,13.6,1.2,20.4,1.9v4.7c-9.2-1.1-18.5-2-27.7-2.7-.1-18.6-.2-37.3-.2-55.9v-1.8h-1.5c0-1.5,0-3-.1-4.5l29.3.6m2.1-1.8c-11.2-.3-22.3-.5-33.5-.6,0,2.6.1,5.3.1,8h1.5c0,19.2.1,38.3.2,57.5,10.6.8,21.3,1.9,31.9,3.2v-8.4q-11.2-1.2-22.5-2.1c0-8.1,0-16.1-.1-24.2l15,.9v-8.3l-15-.7c0-5.9-.1-11.8-.1-17.7l22.5.7V313Z"/>
            <path class="cls-6" d="M257.5,315.3q.2,32.8.2,65.8l-5.2-.7c-.1-19.6-.2-39.1-.2-58.7v-1.9h-1.5v-4.7l6.8.2m2.1-1.9-11-.3c0,2.9,0,5.7.1,8.5h1.5q0,30.3.2,60.4l9.4,1.3q0-34.9-.2-69.9Z"/>
            <path class="cls-6" d="M300.7,303.7v83.6l-4.6-.9c-.1-17.8-.1-35.7-.1-53.5V332l-.6-.6c-6-6.3-11.9-12.2-17.9-18l-3.6-3.5v4.7l.3,68-4.7-.7-.3-72.4v-1.9h-1.8v-4.4h6.1c6.3,5.9,12.6,12.1,18.9,18.5l3.6,3.7V303.6h4.7m2.1-2.1h-9c.1,6.3.1,12.6.1,18.9-6.5-6.6-13-12.9-19.5-19.1h-9.1v8.2h1.8l.3,74,8.9,1.4-.3-70.2c6,5.8,12,11.8,17.9,18,0,18.5.1,36.9.1,55.4l8.8,1.7V301.6Z"/>
          </g>
        </g>
      </g>
    </g>
  </g>
</svg>
